<svg width="129" height="27" viewBox="0 0 129 27" fill="none" xmlns="http://www.w3.org/2000/svg">
<mask id="path-1-outside-1_53_5632" maskUnits="userSpaceOnUse" x="-1" y="-0.826172" width="131" height="29" fill="black">
<rect fill="white" x="-1" y="-0.826172" width="131" height="29"/>
<path d="M1.93953 26.1738C1.46291 26.1738 1.06212 26.0113 0.737147 25.6864C0.412178 25.3614 0.249693 24.9606 0.249693 24.484V2.48356C0.249693 1.98528 0.412178 1.58448 0.737147 1.28118C1.06212 0.956207 1.46291 0.793723 1.93953 0.793723C2.58947 0.793723 3.08776 1.09703 3.43439 1.70364L13.6059 22.0792H12.566L22.4776 1.70364C22.8242 1.09703 23.3225 0.793723 23.9725 0.793723C24.4491 0.793723 24.8499 0.956207 25.1748 1.28118C25.4998 1.58448 25.6623 1.98528 25.6623 2.48356V24.484C25.6623 24.9606 25.489 25.3614 25.1423 25.6864C24.8174 26.0113 24.4274 26.1738 23.9725 26.1738C23.4958 26.1738 23.095 26.0113 22.7701 25.6864C22.4451 25.3614 22.2826 24.9606 22.2826 24.484V7.16312L22.9326 7.00064L14.4184 24.354C14.0501 24.9173 13.5626 25.1989 12.956 25.1989C12.2411 25.1989 11.7211 24.8631 11.3961 24.1915L2.97944 7.32561L3.62937 7.16312V24.484C3.62937 24.9606 3.46689 25.3614 3.14192 25.6864C2.81695 26.0113 2.41616 26.1738 1.93953 26.1738ZM40.2021 26.3038C38.404 26.3038 36.8008 25.9247 35.3926 25.1664C34.0061 24.3865 32.912 23.3249 32.1104 21.9817C31.3305 20.6169 30.9405 19.057 30.9405 17.3022C30.9405 15.5257 31.3088 13.9658 32.0454 12.6226C32.8037 11.2577 33.8436 10.1962 35.1651 9.43791C36.4867 8.65798 38.0032 8.26802 39.7147 8.26802C41.4045 8.26802 42.8561 8.64715 44.0693 9.40541C45.2825 10.142 46.2032 11.1711 46.8315 12.4926C47.4814 13.7925 47.8064 15.2982 47.8064 17.0097C47.8064 17.4213 47.6656 17.768 47.384 18.0496C47.1023 18.3096 46.7448 18.4396 46.3116 18.4396H33.2153V15.8398H46.2141L44.8817 16.7497C44.86 15.6665 44.6434 14.7024 44.2318 13.8575C43.8201 12.9909 43.2352 12.3085 42.4769 11.8102C41.7187 11.3119 40.7979 11.0628 39.7147 11.0628C38.4798 11.0628 37.4182 11.3336 36.53 11.8752C35.6634 12.4168 35.0026 13.1642 34.5477 14.1175C34.0927 15.049 33.8652 16.1106 33.8652 17.3022C33.8652 18.4937 34.136 19.5553 34.6777 20.4869C35.2193 21.4184 35.9667 22.155 36.9199 22.6967C37.8732 23.2383 38.9673 23.5091 40.2021 23.5091C40.8737 23.5091 41.5562 23.3899 42.2494 23.1516C42.9644 22.8916 43.5385 22.5992 43.9718 22.2742C44.2967 22.0359 44.6434 21.9167 45.0117 21.9167C45.4016 21.8951 45.7374 22.0034 46.0191 22.2417C46.3874 22.5667 46.5824 22.9241 46.604 23.3141C46.6257 23.7041 46.4524 24.0399 46.0841 24.3215C45.3475 24.9064 44.4267 25.3831 43.3218 25.7514C42.2386 26.1197 41.1987 26.3038 40.2021 26.3038ZM59.7511 26.3038C57.9529 26.3038 56.3497 25.9247 54.9415 25.1664C53.555 24.3865 52.4609 23.3249 51.6593 21.9817C50.8794 20.6169 50.4894 19.057 50.4894 17.3022C50.4894 15.5257 50.8577 13.9658 51.5943 12.6226C52.3526 11.2577 53.3925 10.1962 54.714 9.43791C56.0356 8.65798 57.5521 8.26802 59.2636 8.26802C60.9535 8.26802 62.405 8.64715 63.6182 9.40541C64.8314 10.142 65.7522 11.1711 66.3804 12.4926C67.0304 13.7925 67.3554 15.2982 67.3554 17.0097C67.3554 17.4213 67.2145 17.768 66.9329 18.0496C66.6513 18.3096 66.2938 18.4396 65.8605 18.4396H52.7642V15.8398H65.763L64.4306 16.7497C64.409 15.6665 64.1923 14.7024 63.7807 13.8575C63.3691 12.9909 62.7841 12.3085 62.0259 11.8102C61.2676 11.3119 60.3468 11.0628 59.2636 11.0628C58.0287 11.0628 56.9672 11.3336 56.0789 11.8752C55.2123 12.4168 54.5516 13.1642 54.0966 14.1175C53.6416 15.049 53.4142 16.1106 53.4142 17.3022C53.4142 18.4937 53.685 19.5553 54.2266 20.4869C54.7682 21.4184 55.5156 22.155 56.4689 22.6967C57.4221 23.2383 58.5162 23.5091 59.7511 23.5091C60.4227 23.5091 61.1051 23.3899 61.7984 23.1516C62.5133 22.8916 63.0874 22.5992 63.5207 22.2742C63.8457 22.0359 64.1923 21.9167 64.5606 21.9167C64.9506 21.8951 65.2864 22.0034 65.568 22.2417C65.9363 22.5667 66.1313 22.9241 66.153 23.3141C66.1746 23.7041 66.0013 24.0399 65.633 24.3215C64.8964 24.9064 63.9757 25.3831 62.8708 25.7514C61.7875 26.1197 60.7476 26.3038 59.7511 26.3038ZM78.0499 26.3038C76.5334 26.3038 75.1252 26.0763 73.8253 25.6214C72.5471 25.1448 71.5505 24.549 70.8356 23.834C70.5106 23.4874 70.3698 23.0975 70.4131 22.6642C70.4781 22.2092 70.6948 21.8409 71.0631 21.5593C71.4963 21.2126 71.9188 21.0718 72.3304 21.1368C72.7637 21.1801 73.132 21.3643 73.4353 21.6893C73.8036 22.1009 74.3886 22.4908 75.1902 22.8591C76.0134 23.2058 76.9233 23.3791 77.9199 23.3791C79.1765 23.3791 80.1297 23.1733 80.7796 22.7617C81.4512 22.35 81.7979 21.8192 81.8195 21.1693C81.8412 20.5194 81.5271 19.9561 80.8771 19.4795C80.2489 19.0028 79.0898 18.6129 77.4 18.3096C75.2118 17.8763 73.6195 17.2263 72.6229 16.3598C71.648 15.4932 71.1605 14.4316 71.1605 13.1751C71.1605 12.0702 71.4855 11.1602 72.1355 10.4453C72.7854 9.70871 73.6195 9.1671 74.6377 8.82046C75.656 8.45217 76.7175 8.26802 77.8224 8.26802C79.2523 8.26802 80.5197 8.4955 81.6246 8.95045C82.7295 9.40541 83.6069 10.0337 84.2568 10.8353C84.5601 11.1819 84.7009 11.5502 84.6793 11.9402C84.6576 12.3085 84.4735 12.6226 84.1268 12.8826C83.7802 13.1209 83.3686 13.1967 82.8919 13.1101C82.4153 13.0234 82.0145 12.8284 81.6896 12.5251C81.1479 12.0052 80.563 11.6477 79.9347 11.4527C79.3064 11.2577 78.5807 11.1602 77.7574 11.1602C76.8042 11.1602 75.9918 11.3227 75.3202 11.6477C74.6702 11.9727 74.3452 12.4493 74.3452 13.0776C74.3452 13.4675 74.4427 13.825 74.6377 14.15C74.8544 14.4533 75.266 14.7349 75.8726 14.9949C76.4792 15.2332 77.3675 15.4715 78.5373 15.7098C80.1622 16.0348 81.4404 16.4464 82.372 16.9447C83.3252 17.443 84.0077 18.0279 84.4193 18.6995C84.8309 19.3495 85.0367 20.1077 85.0367 20.9743C85.0367 21.9709 84.7659 22.87 84.2243 23.6716C83.7044 24.4732 82.9244 25.1123 81.8845 25.5889C80.8663 26.0655 79.5881 26.3038 78.0499 26.3038ZM90.8202 15.0599C90.8202 13.76 91.1343 12.6009 91.7626 11.5827C92.4125 10.5428 93.2791 9.71955 94.3623 9.11294C95.4456 8.50633 96.6371 8.20302 97.937 8.20302C99.2369 8.20302 100.201 8.41967 100.829 8.85296C101.479 9.26459 101.728 9.76288 101.577 10.3478C101.512 10.6511 101.382 10.8894 101.187 11.0628C101.013 11.2144 100.808 11.3119 100.569 11.3552C100.331 11.3986 100.071 11.3877 99.7893 11.3227C98.4028 11.0411 97.1571 11.0194 96.0522 11.2577C94.9473 11.496 94.0699 11.9402 93.4199 12.5901C92.7916 13.24 92.4775 14.0633 92.4775 15.0599H90.8202ZM90.8527 26.1738C90.3327 26.1738 89.9319 26.0438 89.6503 25.7839C89.3686 25.5022 89.2278 25.0906 89.2278 24.549V10.0229C89.2278 9.5029 89.3686 9.1021 89.6503 8.82046C89.9319 8.53882 90.3327 8.398 90.8527 8.398C91.3943 8.398 91.7951 8.53882 92.0551 8.82046C92.3367 9.08044 92.4775 9.48124 92.4775 10.0229V24.549C92.4775 25.0689 92.3367 25.4697 92.0551 25.7514C91.7951 26.033 91.3943 26.1738 90.8527 26.1738ZM111.14 26.3038C109.559 26.3038 108.14 25.9139 106.883 25.1339C105.627 24.3323 104.63 23.2599 103.893 21.9167C103.178 20.5519 102.821 19.0137 102.821 17.3022C102.821 15.5907 103.211 14.0525 103.991 12.6876C104.792 11.3227 105.865 10.2503 107.208 9.4704C108.573 8.66881 110.1 8.26802 111.79 8.26802C113.48 8.26802 114.996 8.66881 116.34 9.4704C117.683 10.2503 118.744 11.3227 119.524 12.6876C120.326 14.0525 120.727 15.5907 120.727 17.3022H119.459C119.459 19.0137 119.091 20.5519 118.354 21.9167C117.64 23.2599 116.654 24.3323 115.397 25.1339C114.141 25.9139 112.722 26.3038 111.14 26.3038ZM111.79 23.3791C112.895 23.3791 113.881 23.1191 114.747 22.5992C115.614 22.0575 116.296 21.3318 116.795 20.4219C117.293 19.4903 117.542 18.4504 117.542 17.3022C117.542 16.1323 117.293 15.0924 116.795 14.1825C116.296 13.2509 115.614 12.5251 114.747 12.0052C113.881 11.4635 112.895 11.1927 111.79 11.1927C110.707 11.1927 109.721 11.4635 108.833 12.0052C107.966 12.5251 107.273 13.2509 106.753 14.1825C106.255 15.0924 106.006 16.1323 106.006 17.3022C106.006 18.4504 106.255 19.4903 106.753 20.4219C107.273 21.3318 107.966 22.0575 108.833 22.5992C109.721 23.1191 110.707 23.3791 111.79 23.3791ZM119.069 26.2063C118.593 26.2063 118.192 26.0547 117.867 25.7514C117.564 25.4264 117.412 25.0256 117.412 24.549V19.577L118.029 16.1323L120.727 17.3022V24.549C120.727 25.0256 120.564 25.4264 120.239 25.7514C119.936 26.0547 119.546 26.2063 119.069 26.2063ZM126.602 26.6938C125.996 26.6938 125.465 26.4771 125.01 26.0438C124.577 25.5889 124.36 25.0581 124.36 24.4515C124.36 23.8232 124.577 23.2924 125.01 22.8591C125.465 22.4042 125.996 22.1767 126.602 22.1767C127.231 22.1767 127.761 22.4042 128.195 22.8591C128.628 23.2924 128.845 23.8232 128.845 24.4515C128.845 25.0581 128.628 25.5889 128.195 26.0438C127.761 26.4771 127.231 26.6938 126.602 26.6938Z"/>
</mask>
<path d="M1.93953 26.1738C1.46291 26.1738 1.06212 26.0113 0.737147 25.6864C0.412178 25.3614 0.249693 24.9606 0.249693 24.484V2.48356C0.249693 1.98528 0.412178 1.58448 0.737147 1.28118C1.06212 0.956207 1.46291 0.793723 1.93953 0.793723C2.58947 0.793723 3.08776 1.09703 3.43439 1.70364L13.6059 22.0792H12.566L22.4776 1.70364C22.8242 1.09703 23.3225 0.793723 23.9725 0.793723C24.4491 0.793723 24.8499 0.956207 25.1748 1.28118C25.4998 1.58448 25.6623 1.98528 25.6623 2.48356V24.484C25.6623 24.9606 25.489 25.3614 25.1423 25.6864C24.8174 26.0113 24.4274 26.1738 23.9725 26.1738C23.4958 26.1738 23.095 26.0113 22.7701 25.6864C22.4451 25.3614 22.2826 24.9606 22.2826 24.484V7.16312L22.9326 7.00064L14.4184 24.354C14.0501 24.9173 13.5626 25.1989 12.956 25.1989C12.2411 25.1989 11.7211 24.8631 11.3961 24.1915L2.97944 7.32561L3.62937 7.16312V24.484C3.62937 24.9606 3.46689 25.3614 3.14192 25.6864C2.81695 26.0113 2.41616 26.1738 1.93953 26.1738ZM40.2021 26.3038C38.404 26.3038 36.8008 25.9247 35.3926 25.1664C34.0061 24.3865 32.912 23.3249 32.1104 21.9817C31.3305 20.6169 30.9405 19.057 30.9405 17.3022C30.9405 15.5257 31.3088 13.9658 32.0454 12.6226C32.8037 11.2577 33.8436 10.1962 35.1651 9.43791C36.4867 8.65798 38.0032 8.26802 39.7147 8.26802C41.4045 8.26802 42.8561 8.64715 44.0693 9.40541C45.2825 10.142 46.2032 11.1711 46.8315 12.4926C47.4814 13.7925 47.8064 15.2982 47.8064 17.0097C47.8064 17.4213 47.6656 17.768 47.384 18.0496C47.1023 18.3096 46.7448 18.4396 46.3116 18.4396H33.2153V15.8398H46.2141L44.8817 16.7497C44.86 15.6665 44.6434 14.7024 44.2318 13.8575C43.8201 12.9909 43.2352 12.3085 42.4769 11.8102C41.7187 11.3119 40.7979 11.0628 39.7147 11.0628C38.4798 11.0628 37.4182 11.3336 36.53 11.8752C35.6634 12.4168 35.0026 13.1642 34.5477 14.1175C34.0927 15.049 33.8652 16.1106 33.8652 17.3022C33.8652 18.4937 34.136 19.5553 34.6777 20.4869C35.2193 21.4184 35.9667 22.155 36.9199 22.6967C37.8732 23.2383 38.9673 23.5091 40.2021 23.5091C40.8737 23.5091 41.5562 23.3899 42.2494 23.1516C42.9644 22.8916 43.5385 22.5992 43.9718 22.2742C44.2967 22.0359 44.6434 21.9167 45.0117 21.9167C45.4016 21.8951 45.7374 22.0034 46.0191 22.2417C46.3874 22.5667 46.5824 22.9241 46.604 23.3141C46.6257 23.7041 46.4524 24.0399 46.0841 24.3215C45.3475 24.9064 44.4267 25.3831 43.3218 25.7514C42.2386 26.1197 41.1987 26.3038 40.2021 26.3038ZM59.7511 26.3038C57.9529 26.3038 56.3497 25.9247 54.9415 25.1664C53.555 24.3865 52.4609 23.3249 51.6593 21.9817C50.8794 20.6169 50.4894 19.057 50.4894 17.3022C50.4894 15.5257 50.8577 13.9658 51.5943 12.6226C52.3526 11.2577 53.3925 10.1962 54.714 9.43791C56.0356 8.65798 57.5521 8.26802 59.2636 8.26802C60.9535 8.26802 62.405 8.64715 63.6182 9.40541C64.8314 10.142 65.7522 11.1711 66.3804 12.4926C67.0304 13.7925 67.3554 15.2982 67.3554 17.0097C67.3554 17.4213 67.2145 17.768 66.9329 18.0496C66.6513 18.3096 66.2938 18.4396 65.8605 18.4396H52.7642V15.8398H65.763L64.4306 16.7497C64.409 15.6665 64.1923 14.7024 63.7807 13.8575C63.3691 12.9909 62.7841 12.3085 62.0259 11.8102C61.2676 11.3119 60.3468 11.0628 59.2636 11.0628C58.0287 11.0628 56.9672 11.3336 56.0789 11.8752C55.2123 12.4168 54.5516 13.1642 54.0966 14.1175C53.6416 15.049 53.4142 16.1106 53.4142 17.3022C53.4142 18.4937 53.685 19.5553 54.2266 20.4869C54.7682 21.4184 55.5156 22.155 56.4689 22.6967C57.4221 23.2383 58.5162 23.5091 59.7511 23.5091C60.4227 23.5091 61.1051 23.3899 61.7984 23.1516C62.5133 22.8916 63.0874 22.5992 63.5207 22.2742C63.8457 22.0359 64.1923 21.9167 64.5606 21.9167C64.9506 21.8951 65.2864 22.0034 65.568 22.2417C65.9363 22.5667 66.1313 22.9241 66.153 23.3141C66.1746 23.7041 66.0013 24.0399 65.633 24.3215C64.8964 24.9064 63.9757 25.3831 62.8708 25.7514C61.7875 26.1197 60.7476 26.3038 59.7511 26.3038ZM78.0499 26.3038C76.5334 26.3038 75.1252 26.0763 73.8253 25.6214C72.5471 25.1448 71.5505 24.549 70.8356 23.834C70.5106 23.4874 70.3698 23.0975 70.4131 22.6642C70.4781 22.2092 70.6948 21.8409 71.0631 21.5593C71.4963 21.2126 71.9188 21.0718 72.3304 21.1368C72.7637 21.1801 73.132 21.3643 73.4353 21.6893C73.8036 22.1009 74.3886 22.4908 75.1902 22.8591C76.0134 23.2058 76.9233 23.3791 77.9199 23.3791C79.1765 23.3791 80.1297 23.1733 80.7796 22.7617C81.4512 22.35 81.7979 21.8192 81.8195 21.1693C81.8412 20.5194 81.5271 19.9561 80.8771 19.4795C80.2489 19.0028 79.0898 18.6129 77.4 18.3096C75.2118 17.8763 73.6195 17.2263 72.6229 16.3598C71.648 15.4932 71.1605 14.4316 71.1605 13.1751C71.1605 12.0702 71.4855 11.1602 72.1355 10.4453C72.7854 9.70871 73.6195 9.1671 74.6377 8.82046C75.656 8.45217 76.7175 8.26802 77.8224 8.26802C79.2523 8.26802 80.5197 8.4955 81.6246 8.95045C82.7295 9.40541 83.6069 10.0337 84.2568 10.8353C84.5601 11.1819 84.7009 11.5502 84.6793 11.9402C84.6576 12.3085 84.4735 12.6226 84.1268 12.8826C83.7802 13.1209 83.3686 13.1967 82.8919 13.1101C82.4153 13.0234 82.0145 12.8284 81.6896 12.5251C81.1479 12.0052 80.563 11.6477 79.9347 11.4527C79.3064 11.2577 78.5807 11.1602 77.7574 11.1602C76.8042 11.1602 75.9918 11.3227 75.3202 11.6477C74.6702 11.9727 74.3452 12.4493 74.3452 13.0776C74.3452 13.4675 74.4427 13.825 74.6377 14.15C74.8544 14.4533 75.266 14.7349 75.8726 14.9949C76.4792 15.2332 77.3675 15.4715 78.5373 15.7098C80.1622 16.0348 81.4404 16.4464 82.372 16.9447C83.3252 17.443 84.0077 18.0279 84.4193 18.6995C84.8309 19.3495 85.0367 20.1077 85.0367 20.9743C85.0367 21.9709 84.7659 22.87 84.2243 23.6716C83.7044 24.4732 82.9244 25.1123 81.8845 25.5889C80.8663 26.0655 79.5881 26.3038 78.0499 26.3038ZM90.8202 15.0599C90.8202 13.76 91.1343 12.6009 91.7626 11.5827C92.4125 10.5428 93.2791 9.71955 94.3623 9.11294C95.4456 8.50633 96.6371 8.20302 97.937 8.20302C99.2369 8.20302 100.201 8.41967 100.829 8.85296C101.479 9.26459 101.728 9.76288 101.577 10.3478C101.512 10.6511 101.382 10.8894 101.187 11.0628C101.013 11.2144 100.808 11.3119 100.569 11.3552C100.331 11.3986 100.071 11.3877 99.7893 11.3227C98.4028 11.0411 97.1571 11.0194 96.0522 11.2577C94.9473 11.496 94.0699 11.9402 93.4199 12.5901C92.7916 13.24 92.4775 14.0633 92.4775 15.0599H90.8202ZM90.8527 26.1738C90.3327 26.1738 89.9319 26.0438 89.6503 25.7839C89.3686 25.5022 89.2278 25.0906 89.2278 24.549V10.0229C89.2278 9.5029 89.3686 9.1021 89.6503 8.82046C89.9319 8.53882 90.3327 8.398 90.8527 8.398C91.3943 8.398 91.7951 8.53882 92.0551 8.82046C92.3367 9.08044 92.4775 9.48124 92.4775 10.0229V24.549C92.4775 25.0689 92.3367 25.4697 92.0551 25.7514C91.7951 26.033 91.3943 26.1738 90.8527 26.1738ZM111.14 26.3038C109.559 26.3038 108.14 25.9139 106.883 25.1339C105.627 24.3323 104.63 23.2599 103.893 21.9167C103.178 20.5519 102.821 19.0137 102.821 17.3022C102.821 15.5907 103.211 14.0525 103.991 12.6876C104.792 11.3227 105.865 10.2503 107.208 9.4704C108.573 8.66881 110.1 8.26802 111.79 8.26802C113.48 8.26802 114.996 8.66881 116.34 9.4704C117.683 10.2503 118.744 11.3227 119.524 12.6876C120.326 14.0525 120.727 15.5907 120.727 17.3022H119.459C119.459 19.0137 119.091 20.5519 118.354 21.9167C117.64 23.2599 116.654 24.3323 115.397 25.1339C114.141 25.9139 112.722 26.3038 111.14 26.3038ZM111.79 23.3791C112.895 23.3791 113.881 23.1191 114.747 22.5992C115.614 22.0575 116.296 21.3318 116.795 20.4219C117.293 19.4903 117.542 18.4504 117.542 17.3022C117.542 16.1323 117.293 15.0924 116.795 14.1825C116.296 13.2509 115.614 12.5251 114.747 12.0052C113.881 11.4635 112.895 11.1927 111.79 11.1927C110.707 11.1927 109.721 11.4635 108.833 12.0052C107.966 12.5251 107.273 13.2509 106.753 14.1825C106.255 15.0924 106.006 16.1323 106.006 17.3022C106.006 18.4504 106.255 19.4903 106.753 20.4219C107.273 21.3318 107.966 22.0575 108.833 22.5992C109.721 23.1191 110.707 23.3791 111.79 23.3791ZM119.069 26.2063C118.593 26.2063 118.192 26.0547 117.867 25.7514C117.564 25.4264 117.412 25.0256 117.412 24.549V19.577L118.029 16.1323L120.727 17.3022V24.549C120.727 25.0256 120.564 25.4264 120.239 25.7514C119.936 26.0547 119.546 26.2063 119.069 26.2063ZM126.602 26.6938C125.996 26.6938 125.465 26.4771 125.01 26.0438C124.577 25.5889 124.36 25.0581 124.36 24.4515C124.36 23.8232 124.577 23.2924 125.01 22.8591C125.465 22.4042 125.996 22.1767 126.602 22.1767C127.231 22.1767 127.761 22.4042 128.195 22.8591C128.628 23.2924 128.845 23.8232 128.845 24.4515C128.845 25.0581 128.628 25.5889 128.195 26.0438C127.761 26.4771 127.231 26.6938 126.602 26.6938Z" fill="#FF5500"/>
<path d="M0.737147 25.6864L0.258422 26.1651L0.737147 25.6864ZM0.737147 1.28118L1.19909 1.77612L1.20762 1.76815L1.21587 1.7599L0.737147 1.28118ZM3.43439 1.70364L4.04013 1.40125L4.03164 1.38424L4.02221 1.36774L3.43439 1.70364ZM13.6059 22.0792V22.7562H14.7006L14.2117 21.7768L13.6059 22.0792ZM12.566 22.0792L11.9572 21.7831L11.4838 22.7562H12.566V22.0792ZM22.4776 1.70364L21.8898 1.36774L21.8786 1.38726L21.8688 1.40749L22.4776 1.70364ZM25.1748 1.28118L24.6961 1.7599L24.7044 1.76815L24.7129 1.77611L25.1748 1.28118ZM25.1423 25.6864L24.6793 25.1925L24.6713 25.1999L24.6636 25.2076L25.1423 25.6864ZM22.2826 7.16312L22.1184 6.50632L21.6056 6.63452V7.16312H22.2826ZM22.9326 7.00064L23.5404 7.29885L24.1824 5.99033L22.7684 6.34383L22.9326 7.00064ZM14.4184 24.354L14.985 24.7245L15.0078 24.6896L15.0262 24.6522L14.4184 24.354ZM11.3961 24.1915L12.0056 23.8966L12.0019 23.8892L11.3961 24.1915ZM2.97944 7.32561L2.81523 6.6688L1.9971 6.87333L2.37366 7.62791L2.97944 7.32561ZM3.62937 7.16312H4.30639V6.29601L3.46517 6.50632L3.62937 7.16312ZM1.93953 25.4968C1.63503 25.4968 1.40871 25.4005 1.21587 25.2076L0.258422 26.1651C0.71552 26.6222 1.29079 26.8508 1.93953 26.8508V25.4968ZM1.21587 25.2076C1.02303 25.0148 0.926713 24.7885 0.926713 24.484H-0.427326C-0.427326 25.1327 -0.198676 25.708 0.258422 26.1651L1.21587 25.2076ZM0.926713 24.484V2.48356H-0.427326V24.484H0.926713ZM0.926713 2.48356C0.926713 2.14786 1.02863 1.93521 1.19909 1.77612L0.275204 0.786238C-0.20427 1.23375 -0.427326 1.8227 -0.427326 2.48356H0.926713ZM1.21587 1.7599C1.40871 1.56706 1.63503 1.47074 1.93953 1.47074V0.116703C1.29079 0.116703 0.715521 0.345353 0.258422 0.802451L1.21587 1.7599ZM1.93953 1.47074C2.32504 1.47074 2.60943 1.62453 2.84658 2.03953L4.02221 1.36774C3.56609 0.569528 2.85391 0.116703 1.93953 0.116703V1.47074ZM2.82866 2.00602L13.0002 22.3816L14.2117 21.7768L4.04013 1.40125L2.82866 2.00602ZM13.6059 21.4022H12.566V22.7562H13.6059V21.4022ZM13.1748 22.3754L23.0864 1.99979L21.8688 1.40749L11.9572 21.7831L13.1748 22.3754ZM23.0654 2.03953C23.3026 1.62453 23.587 1.47074 23.9725 1.47074V0.116703C23.0581 0.116703 22.3459 0.569528 21.8898 1.36774L23.0654 2.03953ZM23.9725 1.47074C24.277 1.47074 24.5033 1.56706 24.6961 1.7599L25.6536 0.802451C25.1965 0.345353 24.6212 0.116703 23.9725 0.116703V1.47074ZM24.7129 1.77611C24.8834 1.93521 24.9853 2.14786 24.9853 2.48356H26.3393C26.3393 1.8227 26.1163 1.23375 25.6368 0.786238L24.7129 1.77611ZM24.9853 2.48356V24.484H26.3393V2.48356H24.9853ZM24.9853 24.484C24.9853 24.7741 24.8889 24.9959 24.6793 25.1925L25.6054 26.1803C26.089 25.7269 26.3393 25.1471 26.3393 24.484H24.9853ZM24.6636 25.2076C24.4642 25.4071 24.2458 25.4968 23.9725 25.4968V26.8508C24.609 26.8508 25.1706 26.6156 25.6211 26.1651L24.6636 25.2076ZM23.9725 25.4968C23.668 25.4968 23.4416 25.4005 23.2488 25.2076L22.2913 26.1651C22.7484 26.6222 23.3237 26.8508 23.9725 26.8508V25.4968ZM23.2488 25.2076C23.056 25.0148 22.9596 24.7885 22.9596 24.484H21.6056C21.6056 25.1327 21.8342 25.708 22.2913 26.1651L23.2488 25.2076ZM22.9596 24.484V7.16312H21.6056V24.484H22.9596ZM22.4468 7.81993L23.0968 7.65744L22.7684 6.34383L22.1184 6.50632L22.4468 7.81993ZM22.3247 6.70243L13.8106 24.0558L15.0262 24.6522L23.5404 7.29885L22.3247 6.70243ZM13.8517 23.9835C13.5923 24.3803 13.3061 24.5219 12.956 24.5219V25.8759C13.8192 25.8759 14.5078 25.4543 14.985 24.7245L13.8517 23.9835ZM12.956 24.5219C12.7082 24.5219 12.5315 24.4651 12.3971 24.3783C12.261 24.2905 12.1251 24.1437 12.0056 23.8966L10.7867 24.4864C10.9921 24.9109 11.2787 25.2679 11.6625 25.5158C12.0481 25.7648 12.4889 25.8759 12.956 25.8759V24.5219ZM12.0019 23.8892L3.58521 7.0233L2.37366 7.62791L10.7904 24.4938L12.0019 23.8892ZM3.14364 7.98241L3.79358 7.81993L3.46517 6.50632L2.81523 6.6688L3.14364 7.98241ZM2.95235 7.16312V24.484H4.30639V7.16312H2.95235ZM2.95235 24.484C2.95235 24.7885 2.85604 25.0148 2.6632 25.2076L3.62065 26.1651C4.07774 25.708 4.30639 25.1327 4.30639 24.484H2.95235ZM2.6632 25.2076C2.47036 25.4005 2.24403 25.4968 1.93953 25.4968V26.8508C2.58828 26.8508 3.16355 26.6222 3.62065 26.1651L2.6632 25.2076ZM35.3926 25.1664L35.0606 25.7566L35.0716 25.7625L35.3926 25.1664ZM32.1104 21.9817L31.5225 22.3177L31.529 22.3287L32.1104 21.9817ZM32.0454 12.6226L31.4536 12.2938L31.4518 12.2971L32.0454 12.6226ZM35.1651 9.43791L35.5021 10.0252L35.5092 10.021L35.1651 9.43791ZM44.0693 9.40541L43.7104 9.97957L43.7179 9.98412L44.0693 9.40541ZM46.8315 12.4926L46.2199 12.7834L46.226 12.7954L46.8315 12.4926ZM47.384 18.0496L47.8432 18.5471L47.8531 18.5379L47.8627 18.5283L47.384 18.0496ZM33.2153 18.4396H32.5383V19.1166H33.2153V18.4396ZM33.2153 15.8398V15.1628H32.5383V15.8398H33.2153ZM46.2141 15.8398L46.5959 16.3989L48.4059 15.1628H46.2141V15.8398ZM44.8817 16.7497L44.2048 16.7633L44.2298 18.0147L45.2635 17.3088L44.8817 16.7497ZM44.2318 13.8575L43.6202 14.148L43.6231 14.154L44.2318 13.8575ZM36.53 11.8752L36.1775 11.2971L36.1712 11.3011L36.53 11.8752ZM34.5477 14.1175L35.156 14.4146L35.1587 14.4091L34.5477 14.1175ZM34.6777 20.4869L34.0924 20.8271L34.6777 20.4869ZM36.9199 22.6967L37.2544 22.108L36.9199 22.6967ZM42.2494 23.1516L42.4696 23.792L42.4808 23.7879L42.2494 23.1516ZM43.9718 22.2742L43.5714 21.7282L43.5656 21.7326L43.9718 22.2742ZM45.0117 21.9167V22.5938H45.0305L45.0492 22.5927L45.0117 21.9167ZM46.0191 22.2417L46.4671 21.7339L46.4564 21.7249L46.0191 22.2417ZM46.604 23.3141L47.28 23.2765L46.604 23.3141ZM46.0841 24.3215L45.6728 23.7836L45.6631 23.7913L46.0841 24.3215ZM43.3218 25.7514L43.1077 25.1091L43.1039 25.1104L43.3218 25.7514ZM40.2021 25.6268C38.5019 25.6268 37.0114 25.2692 35.7136 24.5703L35.0716 25.7625C36.5902 26.5802 38.3061 26.9808 40.2021 26.9808V25.6268ZM35.7245 24.5763C34.4391 23.8533 33.4318 22.8748 32.6918 21.6348L31.529 22.3287C32.3922 23.7751 33.573 24.9197 35.0607 25.7565L35.7245 24.5763ZM32.6982 21.6458C31.9833 20.3948 31.6175 18.9532 31.6175 17.3022H30.2635C30.2635 19.1608 30.6776 20.8389 31.5226 22.3176L32.6982 21.6458ZM31.6175 17.3022C31.6175 15.6212 31.9653 14.1767 32.639 12.9481L31.4518 12.2971C30.6523 13.755 30.2635 15.4302 30.2635 17.3022H31.6175ZM32.6372 12.9514C33.3372 11.6915 34.2901 10.7205 35.502 10.0251L34.8282 8.85068C33.397 9.67186 32.2701 10.824 31.4536 12.2938L32.6372 12.9514ZM35.5092 10.021C36.7148 9.30944 38.1099 8.94504 39.7147 8.94504V7.591C37.8965 7.591 36.2585 8.00652 34.821 8.85485L35.5092 10.021ZM39.7147 8.94504C41.3009 8.94504 42.623 9.29987 43.7104 9.97952L44.4281 8.8313C43.0891 7.99443 41.5081 7.591 39.7147 7.591V8.94504ZM43.7179 9.98412C44.8145 10.6499 45.6467 11.5772 46.2201 12.7833L47.4429 12.2019C46.7598 10.765 45.7504 9.63408 44.4206 8.8267L43.7179 9.98412ZM46.226 12.7954C46.8212 13.9859 47.1294 15.3847 47.1294 17.0097H48.4834C48.4834 15.2117 48.1417 13.5991 47.4371 12.1898L46.226 12.7954ZM47.1294 17.0097C47.1294 17.2485 47.0552 17.4209 46.9052 17.5709L47.8627 18.5283C48.276 18.115 48.4834 17.5942 48.4834 17.0097H47.1294ZM46.9247 17.5521C46.7847 17.6814 46.5986 17.7625 46.3116 17.7625V19.1166C46.8911 19.1166 47.4199 18.9377 47.8432 18.5471L46.9247 17.5521ZM46.3116 17.7625H33.2153V19.1166H46.3116V17.7625ZM33.8923 18.4396V15.8398H32.5383V18.4396H33.8923ZM33.2153 16.5168H46.2141V15.1628H33.2153V16.5168ZM45.8323 15.2807L44.4999 16.1906L45.2635 17.3088L46.5959 16.3989L45.8323 15.2807ZM45.5586 16.7362C45.5352 15.5697 45.3011 14.5067 44.8404 13.561L43.6231 14.154C43.9856 14.8981 44.1848 15.7632 44.2048 16.7633L45.5586 16.7362ZM44.8433 13.567C44.3816 12.5951 43.7166 11.8147 42.8487 11.2444L42.1051 12.376C42.7537 12.8022 43.2586 13.3867 43.6202 14.148L44.8433 13.567ZM42.8487 11.2444C41.9601 10.6605 40.904 10.3857 39.7147 10.3857V11.7398C40.6918 11.7398 41.4772 11.9633 42.1051 12.376L42.8487 11.2444ZM39.7147 10.3857C38.3789 10.3857 37.1903 10.6796 36.1775 11.2971L36.8824 12.4532C37.6461 11.9876 38.5807 11.7398 39.7147 11.7398V10.3857ZM36.1712 11.3011C35.1916 11.9133 34.4451 12.7605 33.9367 13.8259L35.1587 14.4091C35.5601 13.568 36.1352 12.9203 36.8888 12.4493L36.1712 11.3011ZM33.9393 13.8204C33.4329 14.8574 33.1882 16.023 33.1882 17.3022H34.5423C34.5423 16.1982 34.7525 15.2407 35.156 14.4146L33.9393 13.8204ZM33.1882 17.3022C33.1882 18.6003 33.4845 19.7816 34.0924 20.8271L35.2629 20.1466C34.7876 19.329 34.5423 18.3872 34.5423 17.3022H33.1882ZM34.0924 20.8271C34.6953 21.8641 35.53 22.6856 36.5855 23.2853L37.2544 22.108C36.4034 21.6245 35.7433 20.9728 35.2629 20.1466L34.0924 20.8271ZM36.5855 23.2853C37.653 23.8919 38.8651 24.1861 40.2021 24.1861V22.8321C39.0694 22.8321 38.0933 22.5847 37.2544 22.108L36.5855 23.2853ZM40.2021 24.1861C40.9552 24.1861 41.7119 24.0523 42.4695 23.7919L42.0294 22.5114C41.4004 22.7276 40.7923 22.8321 40.2021 22.8321V24.1861ZM42.4808 23.7879C43.2351 23.5136 43.8747 23.1933 44.378 22.8158L43.5656 21.7326C43.2023 22.005 42.6936 22.2697 42.0181 22.5154L42.4808 23.7879ZM44.3721 22.8201C44.5925 22.6585 44.801 22.5938 45.0117 22.5938V21.2397C44.4857 21.2397 44.001 21.4132 43.5714 21.7282L44.3721 22.8201ZM45.0492 22.5927C45.2775 22.58 45.4405 22.639 45.5818 22.7585L46.4564 21.7249C46.0343 21.3677 45.5257 21.2101 44.9741 21.2408L45.0492 22.5927ZM45.5712 22.7494C45.8406 22.9871 45.9189 23.1865 45.9281 23.3517L47.28 23.2765C47.2459 22.6618 46.9342 22.1463 46.467 21.734L45.5712 22.7494ZM45.9281 23.3517C45.9348 23.4737 45.9013 23.609 45.6728 23.7837L46.4953 24.8593C47.0034 24.4708 47.3166 23.9344 47.28 23.2765L45.9281 23.3517ZM45.6631 23.7913C45.0011 24.317 44.1549 24.7601 43.1077 25.1091L43.5359 26.3936C44.6986 26.0061 45.6938 25.4959 46.5051 24.8517L45.6631 23.7913ZM43.1039 25.1104C42.0806 25.4583 41.1145 25.6268 40.2021 25.6268V26.9808C41.2829 26.9808 42.3966 26.781 43.5398 26.3924L43.1039 25.1104ZM54.9415 25.1664L54.6096 25.7566L54.6205 25.7625L54.9415 25.1664ZM51.6593 21.9817L51.0714 22.3177L51.078 22.3287L51.6593 21.9817ZM51.5943 12.6226L51.0025 12.2938L51.0007 12.2971L51.5943 12.6226ZM54.714 9.43791L55.051 10.0252L55.0581 10.021L54.714 9.43791ZM63.6182 9.40541L63.2594 9.97957L63.2668 9.98412L63.6182 9.40541ZM66.3804 12.4926L65.7689 12.7834L65.7749 12.7954L66.3804 12.4926ZM66.9329 18.0496L67.3921 18.5471L67.402 18.5379L67.4116 18.5283L66.9329 18.0496ZM52.7642 18.4396H52.0872V19.1166H52.7642V18.4396ZM52.7642 15.8398V15.1628H52.0872V15.8398H52.7642ZM65.763 15.8398L66.1448 16.3989L67.9548 15.1628H65.763V15.8398ZM64.4306 16.7497L63.7537 16.7633L63.7788 18.0147L64.8124 17.3088L64.4306 16.7497ZM63.7807 13.8575L63.1691 14.148L63.1721 14.154L63.7807 13.8575ZM56.0789 11.8752L55.7264 11.2971L55.7201 11.3011L56.0789 11.8752ZM54.0966 14.1175L54.705 14.4146L54.7076 14.4091L54.0966 14.1175ZM54.2266 20.4869L53.6413 20.8271L54.2266 20.4869ZM56.4689 22.6967L56.8033 22.108L56.4689 22.6967ZM61.7984 23.1516L62.0185 23.792L62.0297 23.7879L61.7984 23.1516ZM63.5207 22.2742L63.1203 21.7282L63.1145 21.7326L63.5207 22.2742ZM64.5606 21.9167V22.5938H64.5794L64.5982 22.5927L64.5606 21.9167ZM65.568 22.2417L66.016 21.7339L66.0053 21.7249L65.568 22.2417ZM66.153 23.3141L66.8289 23.2765L66.153 23.3141ZM65.633 24.3215L65.2217 23.7836L65.212 23.7913L65.633 24.3215ZM62.8708 25.7514L62.6567 25.1091L62.6528 25.1104L62.8708 25.7514ZM59.7511 25.6268C58.0508 25.6268 56.5603 25.2692 55.2625 24.5703L54.6205 25.7625C56.1391 26.5802 57.855 26.9808 59.7511 26.9808V25.6268ZM55.2734 24.5763C53.988 23.8533 52.9807 22.8748 52.2407 21.6348L51.078 22.3287C51.9412 23.7751 53.122 24.9197 54.6096 25.7565L55.2734 24.5763ZM52.2472 21.6458C51.5323 20.3948 51.1665 18.9532 51.1665 17.3022H49.8124C49.8124 19.1608 50.2266 20.8389 51.0715 22.3176L52.2472 21.6458ZM51.1665 17.3022C51.1665 15.6212 51.5142 14.1767 52.188 12.9481L51.0007 12.2971C50.2012 13.755 49.8124 15.4302 49.8124 17.3022H51.1665ZM52.1862 12.9514C52.8861 11.6915 53.8391 10.7205 55.051 10.0251L54.3771 8.85068C52.9459 9.67186 51.8191 10.824 51.0025 12.2938L52.1862 12.9514ZM55.0581 10.021C56.2638 9.30944 57.6588 8.94504 59.2636 8.94504V7.591C57.4454 7.591 55.8074 8.00652 54.3699 8.85485L55.0581 10.021ZM59.2636 8.94504C60.8499 8.94504 62.1719 9.29987 63.2594 9.97952L63.977 8.8313C62.638 7.99443 61.0571 7.591 59.2636 7.591V8.94504ZM63.2668 9.98412C64.3635 10.6499 65.1956 11.5772 65.769 12.7833L66.9919 12.2019C66.3087 10.765 65.2994 9.63408 63.9696 8.8267L63.2668 9.98412ZM65.7749 12.7954C66.3702 13.9859 66.6783 15.3847 66.6783 17.0097H68.0324C68.0324 15.2117 67.6906 13.5991 66.986 12.1898L65.7749 12.7954ZM66.6783 17.0097C66.6783 17.2485 66.6042 17.4209 66.4542 17.5709L67.4116 18.5283C67.8249 18.115 68.0324 17.5942 68.0324 17.0097H66.6783ZM66.4737 17.5521C66.3336 17.6814 66.1475 17.7625 65.8605 17.7625V19.1166C66.4401 19.1166 66.9689 18.9377 67.3921 18.5471L66.4737 17.5521ZM65.8605 17.7625H52.7642V19.1166H65.8605V17.7625ZM53.4412 18.4396V15.8398H52.0872V18.4396H53.4412ZM52.7642 16.5168H65.763V15.1628H52.7642V16.5168ZM65.3812 15.2807L64.0488 16.1906L64.8124 17.3088L66.1448 16.3989L65.3812 15.2807ZM65.1075 16.7362C65.0842 15.5697 64.85 14.5067 64.3893 13.561L63.1721 14.154C63.5346 14.8981 63.7337 15.7632 63.7537 16.7633L65.1075 16.7362ZM64.3922 13.567C63.9306 12.5951 63.2656 11.8147 62.3977 11.2444L61.6541 12.376C62.3027 12.8022 62.8075 13.3867 63.1692 14.148L64.3922 13.567ZM62.3977 11.2444C61.5091 10.6605 60.453 10.3857 59.2636 10.3857V11.7398C60.2407 11.7398 61.0261 11.9633 61.6541 12.376L62.3977 11.2444ZM59.2636 10.3857C57.9279 10.3857 56.7393 10.6796 55.7265 11.2971L56.4314 12.4532C57.1951 11.9876 58.1296 11.7398 59.2636 11.7398V10.3857ZM55.7201 11.3011C54.7405 11.9133 53.9941 12.7605 53.4856 13.8259L54.7076 14.4091C55.109 13.568 55.6842 12.9203 56.4377 12.4493L55.7201 11.3011ZM53.4883 13.8204C52.9818 14.8574 52.7371 16.023 52.7371 17.3022H54.0912C54.0912 16.1982 54.3015 15.2407 54.7049 14.4146L53.4883 13.8204ZM52.7371 17.3022C52.7371 18.6003 53.0334 19.7816 53.6413 20.8271L54.8119 20.1466C54.3365 19.329 54.0912 18.3872 54.0912 17.3022H52.7371ZM53.6413 20.8271C54.2442 21.8641 55.079 22.6856 56.1344 23.2853L56.8033 22.108C55.9523 21.6245 55.2922 20.9728 54.8119 20.1466L53.6413 20.8271ZM56.1344 23.2853C57.202 23.8919 58.414 24.1861 59.7511 24.1861V22.8321C58.6183 22.8321 57.6423 22.5847 56.8033 22.108L56.1344 23.2853ZM59.7511 24.1861C60.5041 24.1861 61.2608 24.0523 62.0185 23.7919L61.5783 22.5114C60.9494 22.7276 60.3412 22.8321 59.7511 22.8321V24.1861ZM62.0297 23.7879C62.7841 23.5136 63.4236 23.1933 63.9269 22.8158L63.1145 21.7326C62.7512 22.005 62.2425 22.2697 61.567 22.5154L62.0297 23.7879ZM63.9211 22.8201C64.1415 22.6585 64.35 22.5938 64.5606 22.5938V21.2397C64.0347 21.2397 63.5499 21.4132 63.1203 21.7282L63.9211 22.8201ZM64.5982 22.5927C64.8265 22.58 64.9895 22.639 65.1307 22.7585L66.0053 21.7249C65.5833 21.3677 65.0747 21.2101 64.5231 21.2408L64.5982 22.5927ZM65.1201 22.7494C65.3895 22.9871 65.4678 23.1865 65.477 23.3517L66.8289 23.2765C66.7948 22.6618 66.4831 22.1463 66.016 21.734L65.1201 22.7494ZM65.477 23.3517C65.4838 23.4737 65.4503 23.609 65.2218 23.7837L66.0443 24.8593C66.5523 24.4708 66.8655 23.9344 66.8289 23.2765L65.477 23.3517ZM65.212 23.7913C64.5501 24.317 63.7038 24.7601 62.6567 25.1091L63.0849 26.3936C64.2476 26.0061 65.2428 25.4959 66.054 24.8517L65.212 23.7913ZM62.6528 25.1104C61.6296 25.4583 60.6634 25.6268 59.7511 25.6268V26.9808C60.8318 26.9808 61.9455 26.781 63.0887 26.3924L62.6528 25.1104ZM73.8253 25.6214L73.5887 26.2559L73.6016 26.2604L73.8253 25.6214ZM70.8356 23.834L70.3417 24.2971L70.3491 24.3051L70.3568 24.3128L70.8356 23.834ZM70.4131 22.6642L69.7429 22.5684L69.7409 22.5826L69.7395 22.5968L70.4131 22.6642ZM71.063 21.5593L71.4743 22.0971L71.4802 22.0926L71.486 22.0879L71.063 21.5593ZM72.3304 21.1368L72.2248 21.8055L72.2439 21.8085L72.2631 21.8105L72.3304 21.1368ZM73.4353 21.6893L73.9399 21.2378L73.9351 21.2325L73.9303 21.2273L73.4353 21.6893ZM75.1902 22.8591L74.9075 23.4743L74.9174 23.4789L74.9274 23.4831L75.1902 22.8591ZM80.7796 22.7617L80.4258 22.1844L80.4174 22.1897L80.7796 22.7617ZM81.8195 21.1693L82.4962 21.1919L81.8195 21.1693ZM80.8771 19.4795L80.4679 20.0189L80.4768 20.0254L80.8771 19.4795ZM77.4 18.3096L77.2684 18.9738L77.2803 18.9759L77.4 18.3096ZM72.6229 16.3598L72.1731 16.8658L72.1787 16.8706L72.6229 16.3598ZM72.1355 10.4453L72.6365 10.9008L72.6431 10.8932L72.1355 10.4453ZM74.6377 8.82047L74.8559 9.46148L74.868 9.45712L74.6377 8.82047ZM81.6246 8.95045L81.8823 8.32443L81.6246 8.95045ZM84.2568 10.8353L83.7309 11.2617L83.7389 11.2715L83.7473 11.2811L84.2568 10.8353ZM84.6793 11.9402L85.3551 11.9799L85.3552 11.9777L84.6793 11.9402ZM84.1268 12.8826L84.5104 13.4405L84.5219 13.4326L84.533 13.4242L84.1268 12.8826ZM82.8919 13.1101L82.7708 13.7762L82.8919 13.1101ZM81.6896 12.5251L81.2206 13.0136L81.2276 13.0201L81.6896 12.5251ZM79.9347 11.4527L79.734 12.0993L79.9347 11.4527ZM75.3202 11.6477L75.0252 11.0382L75.0174 11.0422L75.3202 11.6477ZM74.6377 14.15L74.0572 14.4983L74.0711 14.5215L74.0868 14.5435L74.6377 14.15ZM75.8726 14.9949L75.6059 15.6172L75.6154 15.6212L75.625 15.625L75.8726 14.9949ZM78.5373 15.7098L78.4022 16.3732L78.4046 16.3737L78.5373 15.7098ZM82.372 16.9447L82.0527 17.5417L82.0584 17.5447L82.372 16.9447ZM84.4193 18.6995L83.842 19.0534L83.8473 19.0618L84.4193 18.6995ZM84.2243 23.6716L83.6632 23.2925L83.6563 23.3031L84.2243 23.6716ZM81.8845 25.5889L81.6024 24.9734L81.5975 24.9757L81.8845 25.5889ZM78.0499 25.6268C76.6019 25.6268 75.27 25.4098 74.0489 24.9824L73.6016 26.2604C74.9803 26.7429 76.4649 26.9808 78.0499 26.9808V25.6268ZM74.0618 24.987C72.8445 24.5331 71.941 23.9821 71.3143 23.3553L70.3568 24.3128C71.16 25.1159 72.2496 25.7564 73.5888 26.2557L74.0618 24.987ZM71.3295 23.371C71.1245 23.1523 71.0648 22.9513 71.0868 22.7315L69.7395 22.5968C69.6748 23.2436 69.8968 23.8225 70.3417 24.2971L71.3295 23.371ZM71.0833 22.7599C71.123 22.4823 71.2455 22.272 71.4743 22.0971L70.6518 21.0215C70.144 21.4098 69.8332 21.9361 69.7429 22.5684L71.0833 22.7599ZM71.486 22.0879C71.8223 21.8189 72.058 21.7792 72.2248 21.8055L72.436 20.4681C71.7796 20.3644 71.1704 20.6064 70.6401 21.0306L71.486 22.0879ZM72.2631 21.8105C72.5292 21.8371 72.7466 21.9436 72.9404 22.1512L73.9303 21.2273C73.5174 20.785 72.9983 20.5232 72.3978 20.4631L72.2631 21.8105ZM72.9308 22.1407C73.387 22.6506 74.0661 23.0878 74.9075 23.4743L75.4728 22.2439C74.711 21.8939 74.2202 21.5512 73.9399 21.2378L72.9308 22.1407ZM74.9274 23.4831C75.843 23.8686 76.8435 24.0561 77.9199 24.0561V22.7021C77.0031 22.7021 76.1839 22.543 75.4529 22.2352L74.9274 23.4831ZM77.9199 24.0561C79.2315 24.0561 80.335 23.8447 81.1419 23.3336L80.4174 22.1897C79.9244 22.5019 79.1215 22.7021 77.9199 22.7021V24.0561ZM81.1334 23.3389C81.952 22.8372 82.4653 22.1193 82.4962 21.1919L81.1429 21.1467C81.1305 21.5192 80.9505 21.8629 80.4258 22.1844L81.1334 23.3389ZM82.4962 21.1919C82.5271 20.264 82.0589 19.5065 81.2775 18.9335L80.4768 20.0254C80.9952 20.4056 81.1553 20.7747 81.1429 21.1467L82.4962 21.1919ZM81.2863 18.9401C80.5195 18.3583 79.2186 17.9482 77.5196 17.6432L77.2803 18.9759C78.961 19.2776 79.9782 19.6473 80.4679 20.0188L81.2863 18.9401ZM77.5315 17.6454C75.3888 17.2212 73.9328 16.6016 73.0672 15.8489L72.1787 16.8706C73.3062 17.8511 75.0348 18.5314 77.2684 18.9737L77.5315 17.6454ZM73.0727 15.8537C72.2361 15.1101 71.8376 14.23 71.8376 13.1751H70.4835C70.4835 14.6332 71.0599 15.8763 72.1731 16.8658L73.0727 15.8537ZM71.8376 13.1751C71.8376 12.2127 72.116 11.4731 72.6364 10.9007L71.6345 9.9899C70.855 10.8474 70.4835 11.9276 70.4835 13.1751H71.8376ZM72.6431 10.8932C73.2077 10.2533 73.9384 9.7737 74.8559 9.46136L74.4195 8.17956C73.3005 8.5605 72.3631 9.1641 71.6278 9.99738L72.6431 10.8932ZM74.868 9.45712C75.8109 9.11608 76.7944 8.94504 77.8224 8.94504V7.591C76.6406 7.591 75.501 7.78826 74.4074 8.18381L74.868 9.45712ZM77.8224 8.94504C79.1809 8.94504 80.358 9.16112 81.3668 9.57648L81.8823 8.32443C80.6813 7.82987 79.3237 7.591 77.8224 7.591V8.94504ZM81.3668 9.57648C82.3837 9.9952 83.1628 10.561 83.7309 11.2617L84.7827 10.4089C84.0509 9.5064 83.0752 8.81562 81.8823 8.32443L81.3668 9.57648ZM83.7473 11.2811C83.9565 11.5202 84.0134 11.7206 84.0033 11.9026L85.3552 11.9777C85.3885 11.3798 85.1637 10.8437 84.7663 10.3895L83.7473 11.2811ZM84.0034 11.9004C83.9955 12.0345 83.9387 12.1774 83.7206 12.341L84.533 13.4242C85.0082 13.0678 85.3197 12.5825 85.3551 11.9799L84.0034 11.9004ZM83.7433 12.3247C83.5665 12.4462 83.3426 12.5039 83.013 12.444L82.7708 13.7762C83.3945 13.8895 83.9939 13.7956 84.5104 13.4405L83.7433 12.3247ZM83.013 12.444C82.6522 12.3783 82.3731 12.237 82.1515 12.0302L81.2276 13.0201C81.6559 13.4198 82.1785 13.6685 82.7708 13.7762L83.013 12.444ZM82.1584 12.0367C81.5517 11.4543 80.8775 11.0364 80.1354 10.8061L79.734 12.0993C80.2485 12.259 80.7442 12.5561 81.2207 13.0135L82.1584 12.0367ZM80.1354 10.8061C79.4282 10.5866 78.6324 10.4832 77.7574 10.4832V11.8373C78.529 11.8373 79.1847 11.9288 79.734 12.0993L80.1354 10.8061ZM77.7574 10.4832C76.7295 10.4832 75.8107 10.6582 75.0253 11.0383L75.615 12.2571C76.1728 11.9872 76.8789 11.8373 77.7574 11.8373V10.4832ZM75.0174 11.0422C74.6155 11.2431 74.2719 11.5121 74.0296 11.8675C73.7836 12.2283 73.6682 12.6401 73.6682 13.0776H75.0223C75.0223 12.8868 75.0694 12.7461 75.1483 12.6303C75.231 12.509 75.3749 12.3773 75.6229 12.2532L75.0174 11.0422ZM73.6682 13.0776C73.6682 13.5865 73.7972 14.0649 74.0572 14.4983L75.2183 13.8016C75.0883 13.585 75.0223 13.3486 75.0223 13.0776H73.6682ZM74.0868 14.5435C74.4119 14.9986 74.9615 15.341 75.6059 15.6172L76.1393 14.3726C75.5704 14.1288 75.2969 13.908 75.1886 13.7565L74.0868 14.5435ZM75.625 15.625C76.2865 15.8849 77.2199 16.1324 78.4022 16.3732L78.6725 15.0464C77.515 14.8106 76.672 14.5815 76.1202 14.3647L75.625 15.625ZM78.4046 16.3737C79.9968 16.6921 81.2031 17.0872 82.0527 17.5417L82.6913 16.3477C81.6777 15.8056 80.3276 15.3774 78.6701 15.0459L78.4046 16.3737ZM82.0584 17.5447C82.9412 18.0062 83.5137 18.5175 83.8421 19.0533L84.9965 18.3457C84.5016 17.5383 83.7092 16.8798 82.6856 16.3447L82.0584 17.5447ZM83.8473 19.0618C84.1819 19.5901 84.3597 20.2193 84.3597 20.9743H85.7138C85.7138 19.9962 85.4799 19.1089 84.9912 18.3373L83.8473 19.0618ZM84.3597 20.9743C84.3597 21.8401 84.1269 22.6064 83.6633 23.2925L84.7853 24.0506C85.4049 23.1335 85.7138 22.1017 85.7138 20.9743H84.3597ZM83.6563 23.3031C83.219 23.9773 82.5488 24.5397 81.6024 24.9734L82.1666 26.2043C83.3 25.6848 84.1897 24.969 84.7923 24.04L83.6563 23.3031ZM81.5975 24.9757C80.6958 25.3978 79.5233 25.6268 78.0499 25.6268V26.9808C79.6528 26.9808 81.0368 26.7332 82.1715 26.2021L81.5975 24.9757ZM90.8202 15.0599H90.1432V15.7369H90.8202V15.0599ZM91.7626 11.5827L91.1885 11.2239L91.1864 11.2272L91.7626 11.5827ZM94.3623 9.11294L94.0315 8.52223L94.3623 9.11294ZM100.829 8.85296L100.445 9.41029L100.456 9.41782L100.467 9.42492L100.829 8.85296ZM101.577 10.3478L100.921 10.1779L100.918 10.1919L100.915 10.206L101.577 10.3478ZM101.187 11.0628L101.633 11.5723L101.636 11.5688L101.187 11.0628ZM100.569 11.3552L100.448 10.6891L100.569 11.3552ZM99.7893 11.3227L99.9416 10.663L99.9328 10.661L99.9241 10.6593L99.7893 11.3227ZM93.4199 12.5901L92.9411 12.1113L92.9332 12.1196L93.4199 12.5901ZM92.4775 15.0599V15.7369H93.1545V15.0599H92.4775ZM89.6503 25.7839L89.1716 26.2626L89.1811 26.2722L89.1911 26.2813L89.6503 25.7839ZM89.6503 8.82047L90.129 9.29919L89.6503 8.82047ZM92.0551 8.82047L91.5576 9.27967L91.5759 9.29957L91.5958 9.31794L92.0551 8.82047ZM92.0551 25.7514L91.5763 25.2726L91.5668 25.2822L91.5576 25.2922L92.0551 25.7514ZM91.4972 15.0599C91.4972 13.8743 91.7821 12.8404 92.3387 11.9382L91.1864 11.2272C90.4865 12.3615 90.1432 13.6457 90.1432 15.0599H91.4972ZM92.3367 11.9415C92.9255 10.9994 93.7079 10.2554 94.6931 9.70364L94.0315 8.52223C92.8503 9.18373 91.8995 10.0862 91.1885 11.2239L92.3367 11.9415ZM94.6931 9.70364C95.6705 9.15633 96.7473 8.88004 97.937 8.88004V7.526C96.5269 7.526 95.2207 7.85633 94.0315 8.52223L94.6931 9.70364ZM97.937 8.88004C99.1858 8.88004 99.9843 9.09266 100.445 9.41029L101.214 8.29563C100.418 7.74668 99.2879 7.526 97.937 7.526V8.88004ZM100.467 9.42492C100.726 9.58889 100.846 9.7335 100.898 9.83817C100.943 9.92809 100.96 10.0293 100.921 10.1779L102.232 10.5177C102.345 10.0814 102.313 9.641 102.109 9.23263C101.912 8.83901 101.583 8.52867 101.191 8.281L100.467 9.42492ZM100.915 10.206C100.874 10.3958 100.805 10.4962 100.737 10.5567L101.636 11.5688C101.958 11.2827 102.149 10.9065 102.239 10.4897L100.915 10.206ZM100.741 10.5532C100.664 10.6201 100.573 10.6665 100.448 10.6891L100.69 12.0213C101.043 11.9573 101.362 11.8087 101.633 11.5723L100.741 10.5532ZM100.448 10.6891C100.316 10.7131 100.151 10.7113 99.9416 10.663L99.6371 11.9824C99.9914 12.0642 100.346 12.084 100.69 12.0213L100.448 10.6891ZM99.9241 10.6593C98.4683 10.3635 97.1256 10.3336 95.9094 10.5959L96.1949 11.9195C97.1885 11.7052 98.3373 11.7186 99.6546 11.9862L99.9241 10.6593ZM95.9094 10.5959C94.7066 10.8554 93.7023 11.3502 92.9412 12.1114L93.8986 13.0688C94.4374 12.5301 95.1879 12.1367 96.1949 11.9195L95.9094 10.5959ZM92.9332 12.1196C92.1698 12.9092 91.8005 13.9074 91.8005 15.0599H93.1545C93.1545 14.2192 93.4135 13.5709 93.9067 13.0607L92.9332 12.1196ZM92.4775 14.3829H90.8202V15.7369H92.4775V14.3829ZM90.8527 25.4968C90.4413 25.4968 90.2272 25.395 90.1095 25.2864L89.1911 26.2813C89.6367 26.6926 90.2241 26.8508 90.8527 26.8508V25.4968ZM90.129 25.3051C90.0146 25.1907 89.9048 24.9773 89.9048 24.549H88.5508C88.5508 25.2039 88.7227 25.8138 89.1716 26.2626L90.129 25.3051ZM89.9048 24.549V10.0229H88.5508V24.549H89.9048ZM89.9048 10.0229C89.9048 9.62538 90.0097 9.41851 90.129 9.29919L89.1716 8.34174C88.7276 8.7857 88.5508 9.38042 88.5508 10.0229H89.9048ZM90.129 9.29919C90.2483 9.17987 90.4552 9.07502 90.8527 9.07502V7.72098C90.2102 7.72098 89.6155 7.89778 89.1716 8.34174L90.129 9.29919ZM90.8527 9.07502C91.2853 9.07502 91.4715 9.18637 91.5576 9.27967L92.5525 8.36126C92.1187 7.89128 91.5033 7.72098 90.8527 7.72098V9.07502ZM91.5958 9.31794C91.6891 9.40407 91.8005 9.59025 91.8005 10.0229H93.1545C93.1545 9.37223 92.9842 8.75681 92.5143 8.32299L91.5958 9.31794ZM91.8005 10.0229V24.549H93.1545V10.0229H91.8005ZM91.8005 24.549C91.8005 24.9465 91.6956 25.1533 91.5763 25.2726L92.5338 26.2301C92.9777 25.7861 93.1545 25.1914 93.1545 24.549H91.8005ZM91.5576 25.2922C91.4715 25.3855 91.2853 25.4968 90.8527 25.4968V26.8508C91.5033 26.8508 92.1187 26.6806 92.5525 26.2106L91.5576 25.2922ZM106.883 25.1339L106.519 25.7047L106.526 25.7092L106.883 25.1339ZM103.893 21.9167L103.293 22.2309L103.3 22.2423L103.893 21.9167ZM103.991 12.6876L103.407 12.3447L103.403 12.3517L103.991 12.6876ZM107.208 9.4704L107.548 10.0559L107.551 10.0542L107.208 9.4704ZM116.34 9.4704L115.993 10.0518L116 10.0559L116.34 9.4704ZM119.524 12.6876L118.937 13.0235L118.941 13.0305L119.524 12.6876ZM120.727 17.3022V17.9792H121.404V17.3022H120.727ZM119.459 17.3022V16.6251H118.782V17.3022H119.459ZM118.354 21.9167L117.759 21.5952L117.757 21.5986L118.354 21.9167ZM115.397 25.1339L115.754 25.7092L115.761 25.7047L115.397 25.1339ZM114.747 22.5992L115.096 23.1798L115.106 23.1733L114.747 22.5992ZM116.795 20.4219L117.388 20.7471L117.392 20.7412L116.795 20.4219ZM116.795 14.1825L116.198 14.5018L116.201 14.5076L116.795 14.1825ZM114.747 12.0052L114.388 12.5794L114.399 12.5857L114.747 12.0052ZM108.833 12.0052L109.181 12.5857L109.185 12.5832L108.833 12.0052ZM106.753 14.1825L106.162 13.8525L106.159 13.8573L106.753 14.1825ZM106.753 20.4219L106.156 20.7412L106.161 20.7495L106.165 20.7578L106.753 20.4219ZM108.833 22.5992L108.474 23.1733L108.482 23.1785L108.491 23.1834L108.833 22.5992ZM117.867 25.7514L117.372 26.2133L117.388 26.2304L117.405 26.2463L117.867 25.7514ZM117.412 19.577L116.746 19.4575L116.735 19.5168V19.577H117.412ZM118.029 16.1323L118.299 15.5112L117.514 15.1707L117.363 16.0128L118.029 16.1323ZM120.727 17.3022H121.404V16.8579L120.996 16.6811L120.727 17.3022ZM120.239 25.7514L120.718 26.2301L120.239 25.7514ZM111.14 25.6268C109.676 25.6268 108.382 25.2674 107.24 24.5587L106.526 25.7092C107.897 26.5603 109.442 26.9808 111.14 26.9808V25.6268ZM107.247 24.5632C106.089 23.8245 105.17 22.8376 104.487 21.5912L103.3 22.2423C104.089 23.6823 105.164 24.8402 106.519 25.7047L107.247 24.5632ZM104.493 21.6026C103.834 20.345 103.498 18.9166 103.498 17.3022H102.144C102.144 19.1108 102.522 20.7587 103.294 22.2309L104.493 21.6026ZM103.498 17.3022C103.498 15.6977 103.862 14.2771 104.579 13.0235L103.403 12.3517C102.56 13.8278 102.144 15.4836 102.144 17.3022H103.498ZM104.575 13.0305C105.318 11.7641 106.308 10.7761 107.548 10.0559L106.868 8.88492C105.422 9.72454 104.266 10.8814 103.407 12.3447L104.575 13.0305ZM107.551 10.0542C108.805 9.31779 110.212 8.94504 111.79 8.94504V7.591C109.988 7.591 108.341 8.01984 106.865 8.88662L107.551 10.0542ZM111.79 8.94504C113.368 8.94504 114.763 9.31779 115.993 10.0518L116.687 8.88904C115.23 8.01984 113.592 7.591 111.79 7.591V8.94504ZM116 10.0559C117.238 10.7752 118.215 11.7609 118.937 13.0235L120.112 12.3517C119.274 10.8846 118.127 9.72551 116.68 8.88492L116 10.0559ZM118.941 13.0305C119.676 14.283 120.05 15.7011 120.05 17.3022H121.404C121.404 15.4802 120.976 13.822 120.108 12.3447L118.941 13.0305ZM120.727 16.6251H119.459V17.9792H120.727V16.6251ZM118.782 17.3022C118.782 18.9133 118.437 20.339 117.759 21.5952L118.95 22.2383C119.746 20.7647 120.136 19.1141 120.136 17.3022H118.782ZM117.757 21.5986C117.095 22.8412 116.189 23.8256 115.033 24.5632L115.761 25.7047C117.118 24.839 118.184 23.6787 118.952 22.2348L117.757 21.5986ZM115.04 24.5587C113.898 25.2674 112.605 25.6268 111.14 25.6268V26.9808C112.839 26.9808 114.383 26.5603 115.754 25.7092L115.04 24.5587ZM111.79 24.0561C113.006 24.0561 114.114 23.7686 115.096 23.1797L114.399 22.0186C113.647 22.4696 112.784 22.7021 111.79 22.7021V24.0561ZM115.106 23.1733C116.073 22.5692 116.835 21.7571 117.388 20.7471L116.201 20.0967C115.757 20.9065 115.155 21.5459 114.388 22.0251L115.106 23.1733ZM117.392 20.7412C117.947 19.703 118.219 18.5519 118.219 17.3022H116.865C116.865 18.3489 116.639 19.2776 116.198 20.1026L117.392 20.7412ZM118.219 17.3022C118.219 16.0334 117.948 14.8791 117.388 13.8573L116.201 14.5076C116.638 15.3057 116.865 16.2312 116.865 17.3022H118.219ZM117.392 13.8631C116.838 12.8287 116.072 12.0105 115.096 11.4246L114.399 12.5857C115.156 13.0397 115.754 13.673 116.198 14.5018L117.392 13.8631ZM115.106 11.4311C114.123 10.8167 113.011 10.5157 111.79 10.5157V11.8698C112.779 11.8698 113.638 12.1104 114.388 12.5793L115.106 11.4311ZM111.79 10.5157C110.588 10.5157 109.479 10.818 108.48 11.4271L109.185 12.5832C109.963 12.1091 110.826 11.8698 111.79 11.8698V10.5157ZM108.485 11.4246C107.511 12.0089 106.736 12.8236 106.162 13.8525L107.344 14.5124C107.81 13.6782 108.422 13.0414 109.181 12.5857L108.485 11.4246ZM106.159 13.8573C105.6 14.8791 105.329 16.0334 105.329 17.3022H106.683C106.683 16.2312 106.91 15.3057 107.347 14.5076L106.159 13.8573ZM105.329 17.3022C105.329 18.5519 105.601 19.703 106.156 20.7412L107.35 20.1026C106.909 19.2776 106.683 18.3489 106.683 17.3022H105.329ZM106.165 20.7578C106.739 21.7622 107.51 22.5708 108.474 23.1733L109.192 22.0251C108.422 21.5443 107.807 20.9014 107.341 20.086L106.165 20.7578ZM108.491 23.1834C109.488 23.7674 110.593 24.0561 111.79 24.0561V22.7021C110.821 22.7021 109.954 22.4709 109.175 22.0149L108.491 23.1834ZM119.069 25.5293C118.751 25.5293 118.519 25.4338 118.329 25.2564L117.405 26.2463C117.865 26.6756 118.435 26.8833 119.069 26.8833V25.5293ZM118.362 25.2894C118.185 25.0994 118.089 24.8677 118.089 24.549H116.735C116.735 25.1835 116.943 25.7534 117.372 26.2133L118.362 25.2894ZM118.089 24.549V19.577H116.735V24.549H118.089ZM118.078 19.6964L118.696 16.2517L117.363 16.0128L116.746 19.4575L118.078 19.6964ZM117.76 16.7534L120.457 17.9233L120.996 16.6811L118.299 15.5112L117.76 16.7534ZM120.05 17.3022V24.549H121.404V17.3022H120.05ZM120.05 24.549C120.05 24.8535 119.953 25.0798 119.761 25.2726L120.718 26.2301C121.175 25.773 121.404 25.1977 121.404 24.549H120.05ZM119.761 25.2726C119.599 25.4343 119.388 25.5293 119.069 25.5293V26.8833C119.704 26.8833 120.273 26.675 120.718 26.2301L119.761 25.2726ZM125.01 26.0438L124.52 26.5107L124.531 26.5227L124.543 26.5341L125.01 26.0438ZM125.01 22.8591L124.531 22.3804L125.01 22.8591ZM128.195 22.8591L127.704 23.3261L127.71 23.332L127.716 23.3379L128.195 22.8591ZM128.195 26.0438L128.673 26.5226L128.679 26.5167L128.685 26.5107L128.195 26.0438ZM126.602 26.0168C126.176 26.0168 125.811 25.8717 125.477 25.5536L124.543 26.5341C125.119 27.0825 125.815 27.3708 126.602 27.3708V26.0168ZM125.5 25.5769C125.182 25.2429 125.037 24.8775 125.037 24.4515H123.683C123.683 25.2387 123.971 25.9349 124.52 26.5107L125.5 25.5769ZM125.037 24.4515C125.037 23.9977 125.186 23.6406 125.489 23.3379L124.531 22.3804C123.967 22.9442 123.683 23.6487 123.683 24.4515H125.037ZM125.489 23.3379C125.825 23.0013 126.187 22.8537 126.602 22.8537V21.4997C125.804 21.4997 125.105 21.807 124.531 22.3804L125.489 23.3379ZM126.602 22.8537C127.045 22.8537 127.399 23.0053 127.704 23.3261L128.685 22.3922C128.124 21.8031 127.416 21.4997 126.602 21.4997V22.8537ZM127.716 23.3379C128.019 23.6406 128.168 23.9977 128.168 24.4515H129.522C129.522 23.6487 129.237 22.9442 128.673 22.3804L127.716 23.3379ZM128.168 24.4515C128.168 24.8775 128.023 25.2429 127.704 25.5769L128.685 26.5107C129.233 25.9349 129.522 25.2387 129.522 24.4515H128.168ZM127.716 25.5651C127.413 25.8679 127.056 26.0168 126.602 26.0168V27.3708C127.405 27.3708 128.11 27.0864 128.673 26.5226L127.716 25.5651Z" fill="white" mask="url(#path-1-outside-1_53_5632)"/>
</svg>
